<svg xmlns="http://www.w3.org/2000/svg" viewBox="0 0 19.457 19.457">
  <g id="add_user" data-name="add user" transform="translate(-2 -2)">
    <path id="Path_244" data-name="Path 244" d="M13.607,12.776a.811.811,0,0,0-.257.592v1.6a.811.811,0,1,0,1.621,0V13.7a5.93,5.93,0,0,0,1.621-4.053V6.019C16.5,3.84,14.274,2,11.728,2S6.957,3.84,6.864,6.053v3.6A5.93,5.93,0,0,0,8.485,13.7V14.4L4.171,15.907A3.243,3.243,0,0,0,2,18.968v1.678a.811.811,0,0,0,.811.811H14.16a.811.811,0,0,0,0-1.621H3.621v-.867a1.621,1.621,0,0,1,1.086-1.53l4.864-1.7a.811.811,0,0,0,.535-.766v-1.6a.811.811,0,0,0-.255-.592A4.313,4.313,0,0,1,8.485,9.649V6.088c.055-1.313,1.571-2.467,3.243-2.467s3.188,1.153,3.243,2.432v3.6a4.315,4.315,0,0,1-1.364,3.127Z"/>
    <path id="Path_245" data-name="Path 245" d="M71.675,68.432H70.053V66.811a.811.811,0,1,0-1.621,0v1.621H66.811a.811.811,0,1,0,0,1.621h1.621v1.621a.811.811,0,1,0,1.621,0V70.053h1.621a.811.811,0,1,0,0-1.621Z" transform="translate(-51.029 -51.029)"/>
  </g>
</svg>
