<svg xmlns="http://www.w3.org/2000/svg" viewBox="0 0 33.333 26.931">
  <defs>
    <style>
      .cls-1 {
        fill: #ef426c;
        fill-rule: evenodd;
      }
    </style>
  </defs>
  <path id="basket" class="cls-1" d="M27.168,17.352c1.456,0,2.913.022,4.369-.007,1.127-.023,1.768.421,1.762,1.61-.006,1.259,0,2.517-.014,3.776,0,.4-.011.942-.4,1.053-1.746.5-1.585,2.092-1.928,3.334C30.232,29.726,29.6,32.361,29.013,35a1.851,1.851,0,0,1-2.074,1.654q-10.135-.021-20.27,0a1.928,1.928,0,0,1-2.132-1.829c-.557-2.648-1.239-5.273-1.953-7.885A5.41,5.41,0,0,0,.82,23.686C-.612,22.5.136,20.177.369,18.41c.2-1.517,1.767-.995,2.824-1.047a12.7,12.7,0,0,0,3.586-.447C5.6,15.8,4.414,14.693,3.245,13.568c-1.057-1.016-1.407-2.171-.212-3.26,1.1-1,2.175-.582,3.132.388,1.861,1.886,3.764,3.731,5.6,5.639a3.7,3.7,0,0,0,2.41,1.062c4.628.648,8.381-.583,11.122-4.538a16.324,16.324,0,0,1,2.368-2.4,1.956,1.956,0,0,1,2.995-.067,1.951,1.951,0,0,1-.13,2.994c-1.192,1.206-2.439,2.358-3.662,3.533ZM18.128,28.887c0,1.185.016,2.37-.006,3.554-.015.836-.055,1.557,1.169,1.546,1.024-.01,1.766-.091,1.968-1.325.286-1.747.681-3.478,1.063-5.209.752-3.4.762-3.342-2.664-3.312-1.217.011-1.649.386-1.549,1.588C18.2,26.776,18.126,27.834,18.128,28.887Zm-2.734.2V27.5c0-3.573,0-3.538-3.525-3.35-.967.051-1.256.259-1.011,1.276.57,2.367,1.106,4.75,1.478,7.155.217,1.4,1.017,1.421,2.083,1.392,1.359-.038.924-1.026.961-1.719C15.435,31.2,15.394,30.14,15.394,29.084ZM8.935,33.811c.012-.006.968.432.767-.594-.553-2.83-1.106-5.671-1.877-8.446-.323-1.164-1.611-.614-2.412-.511-.889.114-.434.968-.321,1.458.529,2.3,1.169,4.575,1.688,6.877C7,33.572,7.343,34.2,8.935,33.811ZM27.325,24.2c-1.277-.326-1.683.376-1.89,1.538-.382,2.141-.955,4.248-1.3,6.394-.087.547-1.039,1.63.494,1.812,1.028.122,1.922.1,2.2-1.287.476-2.39,1.034-4.77,1.711-7.11C28.916,24.264,28.481,24.008,27.325,24.2Z" transform="translate(0.035 -9.726)"/>
</svg>
