<svg xmlns="http://www.w3.org/2000/svg" viewBox="0 0 17.68 14.966">
  <defs>
    <style>
      .cls-1 {
        fill: #fff;
        fill-rule: evenodd;
      }
    </style>
  </defs>
  <path id="basket-white" class="cls-1" d="M1.357,20.848l.986,6.272a.885.885,0,0,0,.843.729H14.494a.885.885,0,0,0,.843-.729l.986-6.272h.352a1.031,1.031,0,0,0,.546-1.893H9.983c1.137,1.37-.956,2.895-1.935,1.837l-1.7-1.837H.459A1.031,1.031,0,0,0,1,20.848ZM12.39,12.883v3.222h.951l-2.369,2.261L8.79,16.105h.95V12.883ZM3.942,25.5l-.457-2.767a.259.259,0,0,1,.262-.3h.968l.457,3.371c-.3,0-1.172.152-1.231-.3Zm2.176,0L5.81,22.736a.279.279,0,0,1,.282-.3c.223,0,.778-.007,1.078-.006L7.379,25.8c-.3.031-1.233.128-1.261-.3Zm3.494,0a.3.3,0,0,1-.3.3H8.37a.3.3,0,0,1-.3-.3V22.736a.3.3,0,0,1,.3-.3h.94a.3.3,0,0,1,.3.3V25.5Zm2.258-2.767L11.563,25.5a.33.33,0,0,1-.327.3l-.934,0,.2-3.38c.429-.012.851-.01,1.083.011a.28.28,0,0,1,.282.3Zm-7.092-9L9.552,19.03A.984.984,0,1,1,8.1,20.342L3.324,15.05a.99.99,0,1,1,1.454-1.312Zm9.381,9L13.7,25.5a.361.361,0,0,1-.353.3h-.843l.457-3.371H13.9A.259.259,0,0,1,14.16,22.736Z" transform="translate(0 -12.883)"/>
</svg>
