<svg xmlns="http://www.w3.org/2000/svg" viewBox="0 0 22.468 14.981">
  <g id="message" transform="translate(-5 -19.995)">
    <path id="Path_246" data-name="Path 246" d="M65.24,29.835l7.109,7.109a2.081,2.081,0,0,0,.321-1.112V25.039a2.081,2.081,0,0,0-.321-1.112l-.882.733Z" transform="translate(-45.201 -2.95)"/>
    <path id="Path_247" data-name="Path 247" d="M9.363,20.653l.083.069,6.942,5.77.3.252a3.922,3.922,0,0,0,3.664.732q.081-.025.16-.053a3.916,3.916,0,0,0,1.193-.68l.3-.252,7.026-5.84.41-.341a2.081,2.081,0,0,0-1.107-.318H10.06a2.081,2.081,0,0,0-1.107.318Z" transform="translate(-2.966)"/>
    <path id="Path_248" data-name="Path 248" d="M22.268,50A4.85,4.85,0,0,1,19.6,51.083q-.206.018-.413.018A4.854,4.854,0,0,1,16.105,50l-7.17,7.17a2.081,2.081,0,0,0,1.112.321h18.28a2.081,2.081,0,0,0,1.112-.321Z" transform="translate(-2.953 -22.514)"/>
    <path id="Path_249" data-name="Path 249" d="M5.321,23.926A2.081,2.081,0,0,0,5,25.039V35.832a2.081,2.081,0,0,0,.321,1.112l7.109-7.109Z" transform="translate(0 -2.95)"/>
  </g>
</svg>
