<svg xmlns="http://www.w3.org/2000/svg" viewBox="0 0 16.071 16.071">
  <defs>
    <style>
      .cls-1 {
        fill: #ff0303;
        fill-rule: evenodd;
      }
    </style>
  </defs>
  <path id="error" class="cls-1" d="M13.72,13.72a8.05,8.05,0,1,0-5.685,2.35A8.016,8.016,0,0,0,13.72,13.72Zm-4.6-2.585a1.085,1.085,0,0,0-1.087-1.087,1.1,1.1,0,0,0-1.1,1.087,1.11,1.11,0,0,0,1.1,1.1A1.1,1.1,0,0,0,9.122,11.135ZM8.035,8.946A.767.767,0,0,1,7.3,8.212L6.934,4.936a1.119,1.119,0,0,1,1.1-1.1,1.1,1.1,0,0,1,1.087,1.1L8.77,8.212A.767.767,0,0,1,8.035,8.946Z" transform="translate(0)"/>
</svg>
