<svg xmlns="http://www.w3.org/2000/svg" viewBox="0 0 22.67 19.06">
  <g id="favourite-black" transform="translate(-17.88 -15.432)">
    <path id="Path_278" data-name="Path 278" d="M38.16,28.647a5.745,5.745,0,0,0,1.54-3.79.582.582,0,0,0-1.163-.024,4.579,4.579,0,0,1-1.212,3l-8.534,7.811-8.534-7.811a4.571,4.571,0,1,1,7.953-3.131.581.581,0,0,0,1.163,0,4.527,4.527,0,0,1,.333-1.658,4.591,4.591,0,0,1,4.4-2.889A.582.582,0,0,0,34.139,19,5.758,5.758,0,0,0,28.79,22.24a5.74,5.74,0,1,0-9.37,6.405l.033.033L28.4,36.864a.581.581,0,0,0,.785,0l8.945-8.186Z" transform="translate(0 -2.525)"/>
    <path id="Path_279" data-name="Path 279" d="M70.1,16.013a.581.581,0,1,0-1.163,0v3.319H65.614a.581.581,0,0,0,0,1.163h3.319v3.319a.581.581,0,1,0,1.163,0V20.495h3.319a.581.581,0,0,0,0-1.163H70.1Z" transform="translate(-33.446 0)"/>
  </g>
</svg>
