<svg xmlns="http://www.w3.org/2000/svg" xmlns:xlink="http://www.w3.org/1999/xlink" viewBox="0 0 14.335 15.36">
  <defs>
    <style>
      .cls-1 {
        fill: none;
      }

      .cls-2 {
        clip-path: url(#clip-path);
      }

      .cls-3 {
        fill: #3e2020;
      }
    </style>
    <clipPath id="clip-path">
      <rect id="Rectangle_718" data-name="Rectangle 718" class="cls-1" width="14.336" height="15.36"/>
    </clipPath>
  </defs>
  <g id="Mask_Group_8" data-name="Mask Group 8" class="cls-2" transform="translate(0 0)">
    <g id="instagram" transform="translate(0 0.512)">
      <path id="Path_264" data-name="Path 264" class="cls-3" d="M10.379,0H3.956A3.961,3.961,0,0,0,0,3.956v6.423a3.961,3.961,0,0,0,3.956,3.956h6.423a3.961,3.961,0,0,0,3.956-3.956V3.956A3.961,3.961,0,0,0,10.379,0Zm2.684,10.379a2.687,2.687,0,0,1-2.684,2.684H3.956a2.687,2.687,0,0,1-2.684-2.684V3.956A2.687,2.687,0,0,1,3.956,1.272h6.423a2.687,2.687,0,0,1,2.684,2.684v6.423Z"/>
      <path id="Path_265" data-name="Path 265" class="cls-3" d="M10.479,6.785a3.694,3.694,0,1,0,3.694,3.694A3.7,3.7,0,0,0,10.479,6.785Zm0,6.116A2.422,2.422,0,1,1,12.9,10.479,2.425,2.425,0,0,1,10.479,12.9Z" transform="translate(-3.311 -3.311)"/>
      <path id="Path_266" data-name="Path 266" class="cls-3" d="M20.628,4.679a.932.932,0,1,0,.66.273A.936.936,0,0,0,20.628,4.679Z" transform="translate(-9.612 -2.283)"/>
    </g>
  </g>
</svg>
