<svg xmlns="http://www.w3.org/2000/svg" viewBox="0 0 21.274 22.034">
  <defs>
    <style>
      .cls-1 {
        fill: #e84234;
      }
    </style>
  </defs>
  <g id="logo" transform="translate(-6.553 -4.999)">
    <g id="Group_101" data-name="Group 101" transform="translate(13.963 4.999)">
      <g id="Group_94" data-name="Group 94">
        <path id="Path_287" data-name="Path 287" class="cls-1" d="M38.125,13.918c.437.389-3.954-2.692,1.312-7.339,1.265-1.117,2.6-1.718,2.706-1.552.159.254-.278,1.033-.237,2.23.021.609.008,1.97-.07,3.135a11.353,11.353,0,0,1-.559,2.742,5.318,5.318,0,0,1-1.4,2.146c-.533.184-.128-.729-.21-1.6a8.2,8.2,0,0,1-.252-2.26c.17-.486-.7.024-.972.7s.1,1.555.024,1.75S38.125,13.918,38.125,13.918Z" transform="translate(-36.823 -4.999)"/>
      </g>
    </g>
    <g id="Group_96" data-name="Group 96" transform="translate(17.568 12.39)">
      <g id="Group_95" data-name="Group 95">
        <path id="Path_288" data-name="Path 288" class="cls-1" d="M52.541,37.226A4.11,4.11,0,0,1,56.717,35.2c1.335.1,3,1.034,4.3.747s.646.2.453.755c-1.479,4.264-6.63,3.951-8.96,3.149s.276-.769.449-.705a8.324,8.324,0,0,0,3.557-.845c1.132-.692,2.132-.633.471-.759a10.6,10.6,0,0,0-4.337.355C51.625,38.32,52.449,37.4,52.541,37.226Z" transform="translate(-51.545 -35.189)"/>
      </g>
    </g>
    <g id="Group_97" data-name="Group 97" transform="translate(13.757 16.497)">
      <path id="Path_289" data-name="Path 289" class="cls-1" d="M37.772,52.188c.327-.205,1.705-.691.844,1-.448.878-.2,2.129.088,3.442s.271,1.1.583.437c.406-.855.57-1.463,1.277-.011a3.362,3.362,0,0,1-.235,2.612A5.914,5.914,0,0,1,38.1,62.41c-.631.467-.219-1-.68-2.187a32.351,32.351,0,0,1-1.292-3.174,5.626,5.626,0,0,1-.014-2.458,4.083,4.083,0,0,1,.729-1.556A5.442,5.442,0,0,1,37.772,52.188Z" transform="translate(-35.98 -51.963)"/>
    </g>
    <g id="Group_98" data-name="Group 98" transform="translate(6.553 16.204)">
      <path id="Path_290" data-name="Path 290" class="cls-1" d="M11.473,53.694c-1.51.643-5.755.223-4.775-.2,1.24-.536,2.2-1.819,3.083-2.262a8.134,8.134,0,0,1,3.072-.462c.344-.017.465.233.194.4-.5.312-1.711.733-.824.671,1.776-.124,2.554-.829,1.9.026A10.119,10.119,0,0,1,11.473,53.694Z" transform="translate(-6.553 -50.768)"/>
    </g>
    <g id="Group_99" data-name="Group 99" transform="translate(7.82 9.298)">
      <path id="Path_291" data-name="Path 291" class="cls-1" d="M18.676,28.948c-.874.252-4.362-.59-5.164-1.7-1.158-1.6-.772-3.886-1.661-4.42s3.413-.365,4.482,1.312,1.7,2.916,1.458,3.232-.389.632-.923-.243-1.77-1.662-1.482-.656C15.658,27.425,19,28.854,18.676,28.948Z" transform="translate(-11.731 -22.556)"/>
    </g>
  </g>
</svg>
