<svg xmlns="http://www.w3.org/2000/svg" xmlns:xlink="http://www.w3.org/1999/xlink" viewBox="0 0 14.584 14.584">
  <defs>
    <style>
      .cls-1 {
        fill: #fff;
        stroke: #707070;
      }

      .cls-2 {
        clip-path: url(#clip-path);
      }
    </style>
    <clipPath id="clip-path">
      <rect id="Rectangle_704" data-name="Rectangle 704" class="cls-1" width="14.585" height="14.585" transform="translate(24 216)"/>
    </clipPath>
  </defs>
  <g id="Mask_Group_1" data-name="Mask Group 1" class="cls-2" transform="translate(-24 -216)">
    <g id="makeup" transform="translate(24 217.46)">
      <g id="Group_79" data-name="Group 79">
        <g id="Group_71" data-name="Group 71">
          <path id="Path_258" data-name="Path 258" d="M18.4,23.55a4.986,4.986,0,0,1-1.36-.186,3.79,3.79,0,0,1-2.977-3.5c0-2.033,1.946-3.687,4.337-3.687s4.333,1.654,4.333,3.687a3.781,3.781,0,0,1-2.979,3.5A4.92,4.92,0,0,1,18.4,23.55Zm0-6.881a3.511,3.511,0,0,0-3.754,3.19,3.28,3.28,0,0,0,2.578,3.033,4.374,4.374,0,0,0,2.345,0,3.274,3.274,0,0,0,2.579-3.034A3.507,3.507,0,0,0,18.4,16.669Z" transform="translate(-14.061 -16.173)"/>
        </g>
        <g id="Group_72" data-name="Group 72" transform="translate(0 8.009)">
          <path id="Path_259" data-name="Path 259" d="M18.4,65.2c-2.435,0-4.337-.8-4.337-1.828,0-.823,1.188-1.509,3.026-1.746a10.481,10.481,0,0,1,2.618,0c1.837.237,3.025.922,3.025,1.746C22.731,64.392,20.827,65.2,18.4,65.2Zm0-3.16a9.534,9.534,0,0,0-1.223.077c-1.467.192-2.531.717-2.531,1.255,0,.63,1.542,1.332,3.754,1.332s3.75-.7,3.75-1.332c0-.538-1.064-1.066-2.53-1.255a9.393,9.393,0,0,0-1.22-.077Z" transform="translate(-14.061 -61.539)"/>
        </g>
        <g id="Group_73" data-name="Group 73" transform="translate(2.777 6.707)">
          <path id="Path_260" data-name="Path 260" d="M30.271,56.053a.345.345,0,0,1-.049,0,8.975,8.975,0,0,0-2.435,0,.326.326,0,0,1-.236-.055.235.235,0,0,1-.1-.192V54.417a.239.239,0,0,1,.121-.2.335.335,0,0,1,.263-.034,4.376,4.376,0,0,0,2.345,0,.334.334,0,0,1,.263.034.239.239,0,0,1,.122.2V55.8a.235.235,0,0,1-.1.192A.324.324,0,0,1,30.271,56.053Zm-2.238-1.308v.773a9.8,9.8,0,0,1,1.947,0v-.773a5.113,5.113,0,0,1-1.947,0Z" transform="translate(-27.448 -54.168)"/>
        </g>
        <g id="Group_78" data-name="Group 78" transform="translate(1.929 1.202)">
          <g id="Group_74" data-name="Group 74" transform="translate(0.137 0.117)">
            <path id="Path_261" data-name="Path 261" d="M24.314,26.357a.32.32,0,0,1-.206-.072.223.223,0,0,1,0-.351l2.61-2.221a.329.329,0,0,1,.413,0,.223.223,0,0,1,0,.351l-2.61,2.221A.32.32,0,0,1,24.314,26.357Z" transform="translate(-24.022 -23.639)"/>
          </g>
          <g id="Group_77" data-name="Group 77">
            <g id="Group_75" data-name="Group 75" transform="translate(1.563 1.33)">
              <path id="Path_262" data-name="Path 262" d="M31.188,32.134a.32.32,0,0,1-.206-.072.223.223,0,0,1,0-.351L32.3,30.586a.329.329,0,0,1,.413,0,.223.223,0,0,1,0,.351l-1.321,1.124A.32.32,0,0,1,31.188,32.134Z" transform="translate(-30.896 -30.514)"/>
            </g>
            <g id="Group_76" data-name="Group 76">
              <path id="Path_263" data-name="Path 263" d="M23.653,24.6a.32.32,0,0,1-.206-.072.223.223,0,0,1,0-.351l1.321-1.124a.329.329,0,0,1,.413,0,.223.223,0,0,1,0,.351l-1.321,1.124A.32.32,0,0,1,23.653,24.6Z" transform="translate(-23.361 -22.98)"/>
            </g>
          </g>
        </g>
      </g>
      <g id="Group_82" data-name="Group 82" transform="translate(8.989 0.19)">
        <g id="Group_80" data-name="Group 80" transform="translate(1.579 4.337)">
          <path id="Path_264" data-name="Path 264" d="M66.22,48.579c-1.183,0-1.218-3.5-1.218-3.894a11.091,11.091,0,0,1,.292-2.692.285.285,0,0,1,.285-.192h1.277a.285.285,0,0,1,.285.192,10.91,10.91,0,0,1,.3,2.7C67.439,45.083,67.4,48.579,66.22,48.579Zm-.4-6.284a11.4,11.4,0,0,0-.231,2.392c0,1.976.391,3.19.633,3.384.243-.2.636-1.41.636-3.384a11.022,11.022,0,0,0-.234-2.392Z" transform="translate(-65.002 -41.8)"/>
        </g>
        <g id="Group_81" data-name="Group 81">
          <path id="Path_265" data-name="Path 265" d="M59.543,22.081a.307.307,0,0,1-.247-.116L57.621,19.7a1.446,1.446,0,0,1,.049-1.649,2.028,2.028,0,0,1,1.666-.8h1.7a2.028,2.028,0,0,1,1.666.8,1.439,1.439,0,0,1,.06,1.632l-.012.017-1.678,2.263a.307.307,0,0,1-.245.116Zm.161-.5h.956l1.588-2.14a1.01,1.01,0,0,0-.047-1.136,1.422,1.422,0,0,0-1.17-.561H59.337a1.421,1.421,0,0,0-1.17.561,1.01,1.01,0,0,0-.042,1.145Zm2.8-2.016Z" transform="translate(-57.386 -17.251)"/>
        </g>
      </g>
    </g>
  </g>
</svg>
