<svg id="Group_10" data-name="Group 10" xmlns="http://www.w3.org/2000/svg" viewBox="0 0 15.552 16.054">
  <g id="Group_11" data-name="Group 11" transform="translate(0 11.201)">
    <g id="Group_10-2" data-name="Group 10">
      <path id="Path_219" data-name="Path 219" d="M24.442,362.085H9.14a.125.125,0,0,1-.125-.125V360.2c0-1.077.558-1.489,1.587-1.873a19.989,19.989,0,0,0,2.491-1.082.125.125,0,1,1,.122.219,20.158,20.158,0,0,1-2.525,1.1c-.964.36-1.423.7-1.423,1.638v1.63h15.05V360.2c0-.941-.459-1.278-1.423-1.638a20.083,20.083,0,0,1-2.526-1.1.125.125,0,0,1,.122-.219,19.762,19.762,0,0,0,2.492,1.082c1.029.385,1.586.8,1.586,1.873v1.756A.125.125,0,0,1,24.442,362.085Z" transform="translate(-9.015 -357.233)"/>
    </g>
  </g>
  <g id="Group_13" data-name="Group 13" transform="translate(3.261 6.02)">
    <g id="Group_12" data-name="Group 12">
      <path id="Path_220" data-name="Path 220" d="M117.524,197.522c-1.742,0-4.515-2.468-4.515-5.393a.125.125,0,1,1,.251,0c0,2.789,2.619,5.142,4.264,5.142s4.264-2.353,4.264-5.142a.125.125,0,1,1,.251,0C122.039,195.054,119.266,197.522,117.524,197.522Z" transform="translate(-113.009 -192.004)"/>
    </g>
  </g>
  <g id="Group_15" data-name="Group 15" transform="translate(7.657 12.291)">
    <g id="Group_14" data-name="Group 14">
      <path id="Path_221" data-name="Path 221" d="M253.326,392.243a.126.126,0,0,1-.127-.125.124.124,0,0,1,.124-.125h0a.125.125,0,1,1,0,.251Z" transform="translate(-253.199 -391.992)"/>
    </g>
  </g>
  <g id="Group_17" data-name="Group 17" transform="translate(7.657 13.294)">
    <g id="Group_16" data-name="Group 16">
      <path id="Path_222" data-name="Path 222" d="M253.326,424.241a.126.126,0,0,1-.127-.125.124.124,0,0,1,.124-.125h0a.125.125,0,1,1,0,.251Z" transform="translate(-253.199 -423.99)"/>
    </g>
  </g>
  <g id="Group_19" data-name="Group 19" transform="translate(7.657 14.298)">
    <g id="Group_18" data-name="Group 18">
      <path id="Path_223" data-name="Path 223" d="M253.326,456.239a.126.126,0,0,1-.127-.125.124.124,0,0,1,.124-.125h0a.125.125,0,1,1,0,.251Z" transform="translate(-253.199 -455.988)"/>
    </g>
  </g>
  <g id="Group_21" data-name="Group 21" transform="translate(7.657 15.301)">
    <g id="Group_20" data-name="Group 20">
      <path id="Path_224" data-name="Path 224" d="M253.326,488.237a.126.126,0,0,1-.127-.125.124.124,0,0,1,.124-.125h0a.125.125,0,1,1,0,.251Z" transform="translate(-253.199 -487.986)"/>
    </g>
  </g>
  <g id="Group_28" data-name="Group 28" transform="translate(8.027 10.284)">
    <g id="Group_23" data-name="Group 23" transform="translate(2.759)">
      <g id="Group_22" data-name="Group 22">
        <path id="Path_225" data-name="Path 225" d="M353.119,328.749a.125.125,0,0,1-.125-.125v-.5a.125.125,0,0,1,.251,0v.5A.125.125,0,0,1,353.119,328.749Z" transform="translate(-352.994 -327.996)"/>
      </g>
    </g>
    <g id="Group_25" data-name="Group 25" transform="translate(1.505 0.502)">
      <g id="Group_24" data-name="Group 24">
        <path id="Path_226" data-name="Path 226" d="M313.121,346.009a.125.125,0,0,1-.1-.2l1.254-1.756a.125.125,0,0,1,.2.146l-1.254,1.756A.125.125,0,0,1,313.121,346.009Z" transform="translate(-312.996 -344.002)"/>
      </g>
    </g>
    <g id="Group_27" data-name="Group 27" transform="translate(0 1.505)">
      <g id="Group_26" data-name="Group 26">
        <path id="Path_227" data-name="Path 227" d="M266.629,377a.126.126,0,0,1-.056-.013l-1.505-.753a.125.125,0,0,1,.112-.224l1.505.753a.125.125,0,0,1-.056.238Z" transform="translate(-264.999 -375.993)"/>
      </g>
    </g>
  </g>
  <g id="Group_35" data-name="Group 35" transform="translate(4.515 10.284)">
    <g id="Group_30" data-name="Group 30">
      <g id="Group_29" data-name="Group 29">
        <path id="Path_228" data-name="Path 228" d="M153.131,328.749a.125.125,0,0,1-.125-.125v-.5a.125.125,0,0,1,.251,0v.5A.125.125,0,0,1,153.131,328.749Z" transform="translate(-153.006 -327.996)"/>
      </g>
    </g>
    <g id="Group_32" data-name="Group 32" transform="translate(0 0.502)">
      <g id="Group_31" data-name="Group 31">
        <path id="Path_229" data-name="Path 229" d="M154.386,346a.125.125,0,0,1-.1-.052l-1.254-1.756a.125.125,0,0,1,.2-.146l1.254,1.756a.125.125,0,0,1-.029.175A.124.124,0,0,1,154.386,346Z" transform="translate(-153.006 -343.994)"/>
      </g>
    </g>
    <g id="Group_34" data-name="Group 34" transform="translate(1.254 1.505)">
      <g id="Group_33" data-name="Group 33">
        <path id="Path_230" data-name="Path 230" d="M193.128,377a.125.125,0,0,1-.056-.238l1.505-.753a.125.125,0,0,1,.112.224l-1.505.753A.127.127,0,0,1,193.128,377Z" transform="translate(-193.003 -375.993)"/>
      </g>
    </g>
  </g>
  <g id="Group_37" data-name="Group 37" transform="translate(3.225)">
    <g id="Group_36" data-name="Group 36">
      <path id="Path_231" data-name="Path 231" d="M112.04,5.785l-.027,0a.126.126,0,0,1-.1-.111,4.968,4.968,0,0,1,1.07-3.968c1.27-1.395,3.353-1.687,4.877-1.687a10.975,10.975,0,0,1,1.624.115.125.125,0,0,1,.028.24,1.24,1.24,0,0,0-.677,1.553l.087,0a1.987,1.987,0,0,1,1.526.668,3.8,3.8,0,0,1,.492,3.09.125.125,0,0,1-.231.046l-1.047-1.712a10.1,10.1,0,0,1-3.272.691,9.93,9.93,0,0,1-3.25-.689l-1,1.708A.125.125,0,0,1,112.04,5.785Zm7.677-2.053a.126.126,0,0,1,.107.06l.918,1.5a3.287,3.287,0,0,0-.482-2.541,1.74,1.74,0,0,0-1.336-.581,1.308,1.308,0,0,0-.162.008.127.127,0,0,1-.136-.083A1.642,1.642,0,0,1,119.073.33a11.609,11.609,0,0,0-1.211-.063c-1.474,0-3.484.279-4.692,1.605a4.528,4.528,0,0,0-1.034,3.372l.844-1.449a.126.126,0,0,1,.157-.053,10.025,10.025,0,0,0,3.256.711,10.209,10.209,0,0,0,3.276-.711A.123.123,0,0,1,119.717,3.733Z" transform="translate(-111.879 -0.016)"/>
    </g>
  </g>
  <g id="Group_39" data-name="Group 39" transform="translate(8.027 12.291)">
    <g id="Group_38" data-name="Group 38">
      <path id="Path_232" data-name="Path 232" d="M265.125,395.755a.125.125,0,0,1-.125-.125v-3.512a.125.125,0,1,1,.251,0v3.512A.125.125,0,0,1,265.125,395.755Z" transform="translate(-265 -391.992)"/>
    </g>
  </g>
  <g id="Group_41" data-name="Group 41" transform="translate(7.274 12.291)">
    <g id="Group_40" data-name="Group 40">
      <path id="Path_233" data-name="Path 233" d="M241.126,395.755a.125.125,0,0,1-.125-.125v-3.512a.125.125,0,0,1,.251,0v3.512A.125.125,0,0,1,241.126,395.755Z" transform="translate(-241.001 -391.992)"/>
    </g>
  </g>
  <g id="Group_43" data-name="Group 43" transform="translate(10.034 14.799)">
    <g id="Group_42" data-name="Group 42">
      <path id="Path_234" data-name="Path 234" d="M331.63,472.238h-2.508a.125.125,0,0,1,0-.251h2.508a.125.125,0,1,1,0,.251Z" transform="translate(-328.996 -471.987)"/>
    </g>
  </g>
  <g id="Group_45" data-name="Group 45" transform="translate(10.034 14.799)">
    <g id="Group_44" data-name="Group 44">
      <path id="Path_235" data-name="Path 235" d="M329.121,472.74a.125.125,0,0,1-.125-.125v-.5a.125.125,0,1,1,.251,0v.5A.125.125,0,0,1,329.121,472.74Z" transform="translate(-328.996 -471.987)"/>
    </g>
  </g>
  <g id="Group_47" data-name="Group 47" transform="translate(12.542 14.799)">
    <g id="Group_46" data-name="Group 46">
      <path id="Path_236" data-name="Path 236" d="M409.116,472.74a.125.125,0,0,1-.125-.125v-.5a.125.125,0,0,1,.251,0v.5A.125.125,0,0,1,409.116,472.74Z" transform="translate(-408.991 -471.987)"/>
    </g>
  </g>
  <g id="Group_49" data-name="Group 49" transform="translate(10.284 13.796)">
    <g id="Group_48" data-name="Group 48">
      <path id="Path_237" data-name="Path 237" d="M337.121,440.992a.125.125,0,0,1-.089-.214l.753-.753a.125.125,0,0,1,.177.177l-.753.753A.125.125,0,0,1,337.121,440.992Z" transform="translate(-336.995 -439.988)"/>
    </g>
  </g>
  <g id="Group_51" data-name="Group 51" transform="translate(11.037 13.796)">
    <g id="Group_50" data-name="Group 50">
      <path id="Path_238" data-name="Path 238" d="M361.872,440.992a.125.125,0,0,1-.089-.037l-.752-.753a.125.125,0,1,1,.177-.177l.753.753a.125.125,0,0,1-.089.214Z" transform="translate(-360.995 -439.988)"/>
    </g>
  </g>
  <g id="Group_53" data-name="Group 53" transform="translate(11.539 13.796)">
    <g id="Group_52" data-name="Group 52">
      <path id="Path_239" data-name="Path 239" d="M377.87,440.992a.125.125,0,0,1-.089-.037l-.753-.753a.125.125,0,1,1,.177-.177l.753.753a.125.125,0,0,1-.089.214Z" transform="translate(-376.992 -439.988)"/>
    </g>
  </g>
</svg>
