<svg xmlns="http://www.w3.org/2000/svg" viewBox="0 0 225 162.132">
  <defs>
    <style>
      .cls-1 {
        fill: #e84234;
        fill-rule: evenodd;
      }
    </style>
  </defs>
  <path id="message-sent" class="cls-1" d="M331.008,165.838a46.406,46.406,0,0,0-12.259,38.515H182.618A6.616,6.616,0,0,1,176,197.735v-.265l63.457-54.391,28.668,20.347a6.623,6.623,0,0,0,7.663,0l28.668-20.347,26.553,22.759Zm36.9-14.31c-1.092-.077-2.2-.116-3.309-.116a46.1,46.1,0,0,0-22.98,6.092l-26.04-22.32,52.329-37.138v53.482ZM176,180.04V98.046l52.329,37.138ZM367.912,81.817l-95.956,68.1L176,81.817v-3.2A6.617,6.617,0,0,1,182.618,72H361.294a6.617,6.617,0,0,1,6.618,6.618v3.2ZM328.206,197.735a36.4,36.4,0,1,1,36.4,36.4A36.393,36.393,0,0,1,328.206,197.735Zm26.871-5.651a3.306,3.306,0,0,0-4.7.026l-4.632,4.632a3.314,3.314,0,0,0-.026,4.7l10.9,10.9a6.616,6.616,0,0,0,9.357,0l20.813-20.812a3.312,3.312,0,0,0-.013-4.712l-4.632-4.632a3.325,3.325,0,0,0-4.705-.023L361.294,198.3Z" transform="translate(-176 -72)"/>
</svg>
