<svg xmlns="http://www.w3.org/2000/svg" viewBox="0 0 11.64 16.042">
  <defs>
    <style>
      .cls-1 {
        fill-rule: evenodd;
      }
    </style>
  </defs>
  <path id="Path_252" data-name="Path 252" class="cls-1" d="M72.732,46.483c.419.6.6.927.957,1.523a1.58,1.58,0,0,1-.3,2.053l-1.017.795c-1.256.993,3.11,7.881,4.425,6.887l1.017-.795a1.251,1.251,0,0,1,1.854.331c.359.6.6.927.957,1.523a1.942,1.942,0,0,1-.179,2.318c-5.083,3.973-14.891-11.126-9.688-15.165A1.438,1.438,0,0,1,72.732,46.483Z" transform="translate(-69.28 -45.737)"/>
</svg>
