<svg xmlns="http://www.w3.org/2000/svg" viewBox="0 0 14.296 13.468">
  <defs>
    <style>
      .cls-1 {
        stroke: #060000;
      }
    </style>
  </defs>
  <path id="profile" class="cls-1" d="M12,12.468H1.276A1.343,1.343,0,0,1,0,11.266V10.94c0-.037.021-.912,1.687-1.7.2-.095.411-.232.67-.385A9.12,9.12,0,0,1,5.251,7.576,8.3,8.3,0,0,1,4.207,5.4a3.729,3.729,0,0,1-.185-1.487V3.68c0-.132-.005-.29-.011-.453a5.357,5.357,0,0,1,.047-1.292A2.341,2.341,0,0,1,6.627,0,2.364,2.364,0,0,1,9.184,1.93a4.452,4.452,0,0,1,.053,1.265c-.011.174-.016.337-.016.474v.264a4.333,4.333,0,0,1-.153,1.455A9.224,9.224,0,0,1,8,7.571a9.037,9.037,0,0,1,2.915,1.276c.258.158.485.3.691.4,1.65.78,1.687,1.655,1.687,1.692v.279A1.282,1.282,0,0,1,12,12.468ZM6.627.158a2.2,2.2,0,0,0-2.42,1.814,4.952,4.952,0,0,0-.042,1.244c.005.169.011.327.011.459v.232a3.73,3.73,0,0,0,.174,1.434,7.479,7.479,0,0,0,1.1,2.235l.09.105L5.4,7.708A8.759,8.759,0,0,0,2.43,9c-.258.158-.48.3-.68.4C.19,10.122.158,10.929.158,10.94v.327A1.191,1.191,0,0,0,1.276,12.31H11.994a1.116,1.116,0,0,0,1.133-1.1v-.279c0-.005-.047-.817-1.6-1.555-.211-.105-.438-.243-.7-.406A8.526,8.526,0,0,0,7.84,7.692l-.132-.026.084-.105A8.388,8.388,0,0,0,8.91,5.325a4.1,4.1,0,0,0,.142-1.4V3.659c0-.142.011-.311.016-.485a4.3,4.3,0,0,0-.047-1.218A2.177,2.177,0,0,0,6.627.158Z" transform="translate(0.5 0.5)"/>
</svg>
