<svg xmlns="http://www.w3.org/2000/svg" viewBox="0 0 19.762 15.466">
  <defs>
    <style>
      .cls-1 {
        fill: #fff;
      }
    </style>
  </defs>
  <path id="right-arrow" class="cls-1" d="M46.762,992.093a.786.786,0,0,0-.188-.537l-5.585-6.874a.882.882,0,0,0-1.235-.129.846.846,0,0,0-.094,1.2l4.444,5.477H27.859a.859.859,0,0,0,0,1.719H44.1L39.66,998.43a.888.888,0,0,0,.116,1.254.951.951,0,0,0,1.214-.18l5.585-6.874A.725.725,0,0,0,46.762,992.093Z" transform="translate(-27 -984.361)"/>
</svg>
