<svg xmlns="http://www.w3.org/2000/svg" viewBox="0 0 13.159 9.399">
  <defs>
    <style>
      .cls-1 {
        fill-rule: evenodd;
      }
    </style>
  </defs>
  <g id="shipping" transform="translate(-2 -4)">
    <path id="Path_296" data-name="Path 296" class="cls-1" d="M.63,7.519s0-6.893,0-6.893H7.519V7.519H4.073v.627H9.086V7.519h-.94V.627A.629.629,0,0,0,7.519,0H.627A.629.629,0,0,0,0,.627V7.519a.63.63,0,0,0,.63.627h.937V7.519Z" transform="translate(2 4)"/>
    <path id="Path_297" data-name="Path 297" class="cls-1" d="M15.321,2.627a.307.307,0,0,1,.2.115l1.559,2.6a1.007,1.007,0,0,1,.116.418V8.268s-.94,0-.94,0v.627H17.2a.623.623,0,0,0,.63-.625V5.758a1.614,1.614,0,0,0-.2-.74l-1.559-2.6A.92.92,0,0,0,15.321,2H12.5v.627Z" transform="translate(-2.667 3.253)"/>
    <path id="Path_298" data-name="Path 298" class="cls-1" d="M15.624,4A.62.62,0,0,0,15,4.621V6.512a.62.62,0,0,0,.625.621h2.821V6.506H15.625s0-1.886,0-1.886,1.567.006,1.567.006V4Z" transform="translate(-3.601 2.506)"/>
    <path id="Path_299" data-name="Path 299" class="cls-1" d="M3.567,13.133A1.567,1.567,0,1,0,2,11.567,1.567,1.567,0,0,0,3.567,13.133Zm0-.627a.94.94,0,1,0-.94-.94A.94.94,0,0,0,3.567,12.506Z" transform="translate(1.253 0.266)"/>
    <path id="Path_300" data-name="Path 300" class="cls-1" d="M15.567,13.133A1.567,1.567,0,1,0,14,11.567,1.567,1.567,0,0,0,15.567,13.133Zm0-.627a.94.94,0,1,0-.94-.94A.94.94,0,0,0,15.567,12.506Z" transform="translate(-3.227 0.266)"/>
  </g>
</svg>
