<svg xmlns="http://www.w3.org/2000/svg" viewBox="0 0 16.328 16">
  <path id="Path_243" data-name="Path 243" d="M20.448,5.767H7.416A1.65,1.65,0,0,0,5.768,7.415v4.594a1.65,1.65,0,0,0,1.648,1.648l8.965,0-1.94,1.94a.413.413,0,1,0,.585.585l2.646-2.646a.413.413,0,0,0,0-.585l-2.646-2.646a.413.413,0,1,0-.585.585l1.94,1.94H7.416a.825.825,0,0,1-.824-.824V7.415a.825.825,0,0,1,.824-.824H20.448a.825.825,0,0,1,.824.824v12.7a.825.825,0,0,1-.824.824H7.416a.825.825,0,0,1-.824-.824v-.87h0V16.015a.412.412,0,0,0-.825,0v.566h0v3.538a1.65,1.65,0,0,0,1.648,1.648H20.448A1.65,1.65,0,0,0,22.1,20.119V7.415A1.65,1.65,0,0,0,20.448,5.767Z" transform="translate(-5.768 -5.767)"/>
</svg>
