<svg xmlns="http://www.w3.org/2000/svg" xmlns:xlink="http://www.w3.org/1999/xlink" viewBox="0 0 14.335 15.36">
  <defs>
    <style>
      .cls-1 {
        fill: none;
      }

      .cls-2 {
        clip-path: url(#clip-path);
      }

      .cls-3 {
        fill: #1d0707;
      }
    </style>
    <clipPath id="clip-path">
      <rect id="Rectangle_719" data-name="Rectangle 719" class="cls-1" width="14.336" height="15.36"/>
    </clipPath>
  </defs>
  <g id="Mask_Group_9" data-name="Mask Group 9" class="cls-2" transform="translate(0 0)">
    <g id="twitter" transform="translate(0 1.856)">
      <g id="Group_69" data-name="Group 69" transform="translate(0 0)">
        <path id="Path_267" data-name="Path 267" class="cls-3" d="M14.336,4a6.127,6.127,0,0,1-1.693.464,2.922,2.922,0,0,0,1.293-1.624,5.873,5.873,0,0,1-1.864.711,2.939,2.939,0,0,0-5.084,2.01,3.026,3.026,0,0,0,.068.67A8.319,8.319,0,0,1,1,3.161a2.94,2.94,0,0,0,.9,3.928A2.9,2.9,0,0,1,.573,6.727v.032A2.952,2.952,0,0,0,2.928,9.647a2.933,2.933,0,0,1-.771.1,2.6,2.6,0,0,1-.556-.05,2.967,2.967,0,0,0,2.746,2.047A5.905,5.905,0,0,1,.7,12.994a5.5,5.5,0,0,1-.7-.04,8.274,8.274,0,0,0,4.509,1.319A8.307,8.307,0,0,0,12.873,5.91c0-.13,0-.255-.011-.38A5.863,5.863,0,0,0,14.336,4Z" transform="translate(0 -2.625)"/>
      </g>
    </g>
  </g>
</svg>
